<svg width="20" height="44" xmlns="http://www.w3.org/2000/svg">
 <style type="text/css">.st0{fill="#FFFFFF";}</style>
 <defs>
  <filter id="Sign_In_blur">
   <feGaussianBlur stdDeviation="0" in="SourceGraphic"/>
  </filter>
 </defs>
 <g>
  <title>Layer 1</title>
  <path stroke-width="0" filter="url(#Sign_In_blur)" fill="#ffffff" d="m13.84,27.315555c-0.48,-0.115556 -0.84,-0.231111 -1.32,-0.346667c-0.6,-0.115556 -0.84,-0.462222 -0.84,-1.04c0,-0.115556 -0.12,-0.924444 0,-0.924444c0.36,-0.231111 0.48,-0.924444 0.48,-1.271111c0,-0.346667 0.24,-0.462222 0.36,-0.693333c0.12,-0.231111 0.24,-0.693333 0.36,-0.924444c0,-0.346667 0.12,-0.693333 0.12,-0.924444c0,-0.231111 -0.24,-0.346667 -0.24,-0.577778c0,-0.231111 0,-0.462222 0.12,-0.808889c0,-0.462222 0,-0.924444 0,-1.271111c0,-0.231111 -0.12,-0.462222 -0.24,-0.693333c-0.12,-0.231111 -0.36,-0.462222 -0.6,-0.577778c-0.72,-0.462222 -1.44,-0.693333 -2.16,-0.693333c-0.6,0 -1.32,0.231111 -1.92,0.577778c-0.24,0.115556 -0.48,0.346667 -0.6,0.693333c-0.12,0.115556 -0.24,0.346667 -0.24,0.577778c-0.12,0.462222 -0.12,0.924444 -0.12,1.386667c0,0.231111 0.12,0.462222 0.12,0.808889c0,0.231111 -0.12,0.462222 -0.24,0.577778c0,0.231111 0.12,0.577778 0.12,0.808889c0.12,0.346667 0.24,0.693333 0.36,0.924444c0.12,0.231111 0.24,0.346667 0.36,0.693333c0,0.462222 0.12,1.04 0.48,1.271111c0.12,0 0,0.808889 0,0.924444c0,0.693333 -0.24,0.924444 -0.84,1.04c-0.48,0.115556 -0.96,0.231111 -1.32,0.346667c-0.12,0 -0.84,0.577778 -0.84,0.693333c0,0 1.68,1.617778 4.8,1.733333c3.12,0 5.04,-1.848889 5.04,-1.848889c-0.12,0 -1.08,-0.462222 -1.2,-0.462222m-3.84,-12.942222c4.32,0 7.92,3.351111 7.92,7.626667s-3.6,7.626667 -7.92,7.626667c-4.32,0 -7.8,-3.351111 -7.8,-7.626667c-0.12,-4.16 3.48,-7.626667 7.8,-7.626667m0,-1.04c-4.92,0 -9,3.928889 -9,8.666667s3.96,8.666667 8.88,8.666667c5.04,0 9.12,-3.928889 9.12,-8.666667s-4.08,-8.666667 -9,-8.666667l0,0z" class="st0" id="Sign_In"/>
 </g>
</svg>